# xmcd
#
# Track frame offsets:
#	150
#	21105
#	38597
#	55047
#	73550
#	88332
#	105705
#	120232
#	139527
#	155992
#	169277
#	189652
#	209820
#	224107
#	240135
#	257027
#	270350
#	286890
#	300902
#	317022
#
# Disc length: 4493 seconds
#
# Revision: 1
# Processed by: cddbd v1.5.2PL0 Copyright (c) Steve Scherf et al.
# Submitted via: EasyCDDAExtractor 16.1.0.1
#
DISCID=1e118b14
DTITLE=Various Artist - 33rd CMA Awards Collection 1999
DYEAR=1999
DGENRE=Country
TTITLE0=Vince Gill - If You Ever Have Forever In Mind
TTITLE1=Reba McEntire - Forever Love
TTITLE2=Geirge Strait - Write This Down
TTITLE3=Mark Chesnutt - I Don't Want To Miss A Thing
TTITLE4=Chely Wright - Single White Female
TTITLE5=Dolly Parton - Salt In My tears
TTITLE6=Marty Stewart - Red Red Wine And Cheatin' Songs
TTITLE7=Allison Moorer - Tell Me Baby
TTITLE8=Lee Ann Womack - I'll Think Of A Reason Later
TTITLE9=Sara Evans - The Cryin' Game (Remix)
TTITLE10=Martina McBride - Whatever You Say
TTITLE11=Alan Jackson - Little Man
TTITLE12=Brooks and Dunn - Husbands And Wives
TTITLE13=Terri Clark - You're Easy On The Eyes
TTITLE14=Dixie Chicks - Wide Open Spaces
TTITLE15=Steve Earle and The Del McCoury Band - Dixieland
TTITLE16=Jo Dee Messina - Lesson In Leavin'
TTITLE17=The Mavericks - Someone Should Tell Her
TTITLE18=Tim McGraw - For A Little While
TTITLE19=Faith Hill - Let Me Let Go
EXTD=YEAR: 1999 ID3G: 2
EXTT0=
EXTT1=
EXTT2=
EXTT3=
EXTT4=
EXTT5=
EXTT6=
EXTT7=
EXTT8=
EXTT9=
EXTT10=
EXTT11=
EXTT12=
EXTT13=
EXTT14=
EXTT15=
EXTT16=
EXTT17=
EXTT18=
EXTT19=
PLAYORDER=
